<svg width="172" height="59" viewBox="0 0 172 59" fill="none" xmlns="http://www.w3.org/2000/svg">
<path d="M0.789551 29.716C0.789551 45.8891 13.9005 59.0001 30.0736 59.0001V0.431885C13.9005 0.431885 0.789551 13.5428 0.789551 29.716Z" fill="#04DE00"/>
<path fill-rule="evenodd" clip-rule="evenodd" d="M67.3578 59.0001C51.1847 59.0001 38.0737 45.8891 38.0737 29.716C38.0737 13.5428 51.1847 0.431885 67.3578 0.431885V19.9764C67.1408 19.962 66.9218 19.9546 66.7012 19.9546C61.3101 19.9546 56.9398 24.3249 56.9398 29.716C56.9398 35.107 61.3101 39.4774 66.7012 39.4774C66.9218 39.4774 67.1408 39.47 67.3578 39.4556V59.0001Z" fill="#04DE00"/>
<path fill-rule="evenodd" clip-rule="evenodd" d="M104.642 59.0001C88.4688 59.0001 75.3579 45.8891 75.3579 29.716C75.3579 13.5428 88.4688 0.431885 104.642 0.431885V19.96C104.533 19.9564 104.424 19.9546 104.314 19.9546C98.9229 19.9546 94.5526 24.3249 94.5526 29.716C94.5526 35.107 98.9229 39.4774 104.314 39.4774C104.424 39.4774 104.533 39.4755 104.642 39.4719V59.0001Z" fill="#04DE00"/>
<circle cx="141.926" cy="29.716" r="19.5227" stroke="#04DE00" stroke-width="19.5227"/>
</svg>
