<svg width="444" height="444" viewBox="0 0 444 444" fill="none" xmlns="http://www.w3.org/2000/svg">
<rect width="444" height="444" rx="83.25" fill="#C6EAFF"/>
<path d="M233.705 156.684C218.519 133.96 176.791 128.251 161.763 129.04C161.763 182.064 198.146 187.429 216.338 183.484C225.829 183.484 248.89 179.409 233.705 156.684Z" fill="#C6EAFF"/>
<path d="M231.298 149.537C208.237 125.206 228.959 83.2564 276.415 83.25C282.925 136.832 253.709 159.219 243.13 167.241L245.535 170.841C237.349 171.576 238.286 170.914 243.13 167.241L231.298 149.537Z" fill="#C6EAFF"/>
<path fill-rule="evenodd" clip-rule="evenodd" d="M223.871 103.466C230.225 87.2203 240.689 76.1153 267.142 71.4714C272.325 70.5615 276.906 72.0772 278.433 77.1129C282.1 89.1979 283.636 97.3149 283.817 107.229L274.023 139.371C271.167 152.573 280.961 149.154 280.961 152.623C285.663 155.927 287.121 156.838 283.817 161.541L248.727 192.088C245.423 196.791 238.933 197.925 234.23 194.621C229.527 191.317 228.393 184.827 231.697 180.124L225.461 187.311C215.337 192.939 204.625 194.694 193.772 190.003C179.245 183.723 166.809 171.611 161.786 142.978C160.83 137.527 163.917 132.931 169.312 131.69C177.888 129.718 187.398 129.919 203.176 131.69C206.844 132.102 218.132 134.615 221.992 135.444C220.166 126.662 220.467 112.167 223.871 103.466ZM253.227 147.583C256.443 143.258 259.786 137.781 262.335 130.96C266.274 120.417 268.507 106.106 264.475 87.2203C249.845 92.1096 241.104 101.426 237.531 110.559C233.277 121.436 235.898 132.487 245.172 139.371C245.645 139.721 246.087 140.112 246.493 140.537L253.227 147.583ZM176.837 144.86C180.6 163.673 190.007 173.498 199.413 176.843C208.632 180.828 219.329 176.902 226.17 174.112C226.856 173.832 227.571 173.627 228.301 173.498C229.997 173.201 232.366 172.589 234.634 171.641C237.005 170.649 238.531 169.596 239.274 168.79C239.455 168.594 239.545 168.46 239.587 168.39C239.587 168.39 239.584 168.363 239.581 168.345C239.524 167.89 238.989 165.66 235.052 161.541C228.167 154.337 217.116 148.306 203.176 146.741C195.052 145.829 183.181 144.368 176.837 144.86Z" fill="#0085CE"/>
<path d="M302.848 101.111C302.746 101.207 302.647 101.306 302.55 101.407L226.957 180.477L210.614 190.283C210.082 190.602 209.587 190.976 209.135 191.401L66.5563 325.461L66.5257 325.49C59.3436 332.309 59.0494 343.659 65.8684 350.841C72.6875 358.023 84.0376 358.317 91.2196 351.498L85.3103 345.274L91.2196 351.498L350.63 105.197C357.812 98.3784 358.107 87.0283 351.288 79.8463L345.012 85.8046L351.288 79.8463C344.468 72.6643 333.118 72.37 325.936 79.1891L302.848 101.111Z" stroke="#0085CE" stroke-width="17.3438" stroke-linecap="round" stroke-linejoin="round"/>
<path fill-rule="evenodd" clip-rule="evenodd" d="M248.123 159.91C249.604 157.135 252.354 155.32 255.442 155.079C282.868 152.942 308.953 164.263 329.217 177.585C349.512 190.926 365.194 207.077 372.091 216.592C376.69 222.936 382.417 234.233 386.677 247.699C390.963 261.244 394.007 277.737 392.57 294.425C391.121 311.258 385.08 328.424 371.136 342.541C357.264 356.586 336.353 366.82 306.567 371.418C277.564 375.895 255.162 370.566 239.434 356.741C223.889 343.077 216.598 322.619 214.505 300.523C212.121 275.358 216.291 246.41 224.406 218.544C225.941 213.273 227.617 208.041 229.417 202.881C230.839 198.802 232.339 194.767 233.907 190.794C238.194 179.933 242.992 169.528 248.123 159.91ZM261.909 173.697C242.364 212.187 229.303 261.399 232.852 298.861C234.688 318.241 240.824 333.192 251.37 342.462C261.733 351.571 278.087 356.7 303.667 352.752C330.808 348.562 347.737 339.573 358.12 329.061C368.432 318.62 373.064 305.895 374.208 292.606C375.365 279.172 372.923 265.312 369.146 253.377C365.345 241.361 360.434 232.049 357.324 227.759C351.887 220.258 337.921 205.65 319.354 193.444C302.154 182.137 282.051 173.578 261.909 173.697Z" fill="#0085CE"/>
<path fill-rule="evenodd" clip-rule="evenodd" d="M254.245 155.917C257.964 153.69 262.728 154.088 265.934 156.892C279.683 168.915 312.337 198.536 332.386 220.426C335.946 224.312 335.536 230.292 331.472 233.781C327.407 237.27 321.226 236.947 317.666 233.061C305.733 220.032 288.953 203.958 274.652 190.76C277.423 210.285 278.911 234.911 275.256 257.688C274.427 262.858 269.426 266.451 264.087 265.713C258.748 264.974 255.092 260.184 255.921 255.014C261.329 221.307 254.157 181.859 249.874 166.507C248.745 162.459 250.526 158.143 254.245 155.917Z" fill="#0085CE"/>
<path d="M277.101 170.12C277.101 183.361 262.455 194.103 250.862 194.103C239.27 194.103 222 197.092 222 176.113C222 162.872 239.27 146.152 250.862 146.152C269.229 143.148 279.725 155.127 277.101 170.12Z" fill="#C6EAFF"/>
<path fill-rule="evenodd" clip-rule="evenodd" d="M277.387 184.225C272.071 189.716 264.559 194.142 256.499 195.556C255.768 195.684 254.998 195.837 253.987 196.038C253.824 196.071 253.654 196.104 253.478 196.139C252.299 196.373 250.863 196.654 249.36 196.898C246.486 197.365 242.433 197.868 238.125 197.447C233.64 197.008 228.049 195.481 223.229 191.174C218.391 186.852 215.955 181.184 214.956 175.488C213.065 164.708 218.909 154.862 223.446 149.299C227.972 143.749 235.461 137.199 244.627 135.154C254.034 132.327 264.192 132.455 272.719 137.369C281.465 142.41 286.16 151.207 286.352 160.667C287.489 170.767 282.315 179.135 277.387 184.225ZM270.594 161.821C272.063 170.195 262.418 178.889 253.84 180.394C252.915 180.556 251.946 180.749 250.95 180.947C242.697 182.587 232.564 184.601 230.488 172.764C229.019 164.39 239.942 151.575 248.52 150.07C261.778 145.787 270.872 152 270.594 161.821Z" fill="#0085CE"/>
</svg>
